<?xml version="1.0" encoding="UTF-8"?>
<svg id="Layer_1" data-name="Layer 1" xmlns="http://www.w3.org/2000/svg" viewBox="0 0 595.28 595.28">
  <path d="M315.06,577.99c-4.06,5.22-8.24,8.87-13.62,11.66h-8.75c-4.85-2.62-8.77-5.75-12.59-10.48-34.72-42.5-40.59-102.18-14.84-150.94,20.68,8.23,42.97,8.27,63.62-.02,25.59,48.26,20.16,107.32-13.82,149.78Z"/>
  <path d="M380.73,75.53c-6.72-34.54-34.74-62.2-71.04-67.97-44.03-7-87.68,23.35-96.31,68-7.16,37.07,10.08,73.32,43.45,91.55-11.94,34.7-9.89,71.57,5.74,104.2,22.48-9.99,46.39-9.81,69.06-.1,15.54-33.36,17.01-69.92,5.3-103.9,33.47-18.01,51.05-54.55,43.8-91.78ZM346.46,105.15c-3.67,13.55-12.9,24.78-24.92,31.08-4.17-5.42-7.63-9.94-11.76-14.75-6.34-7.38-18.3-7.94-24.97-.67-4.52,4.92-8.25,9.81-12.65,15.31-11.98-6.8-20.52-17.26-24.26-30.16-6.04-20.82,2.02-42.66,18.9-55.07,17.55-12.9,41.2-13.37,59.2-.96,17.43,12.01,26.22,33.95,20.46,55.22Z"/>
  <path d="M245.53,416.75c-30.64,46-86.08,68.41-139.99,56.95-10.52-2.09-16.44-11.84-13.47-22.01,16.63-53.4,64.35-90.48,120.52-93.73,2.64,23.49,14.24,44.22,32.94,58.79Z"/>
  <path d="M488.97,473.58c-54.39,11.89-109.55-11.05-140.36-56.81,18.71-14.6,30.26-35.32,32.94-58.86,55.57,3.36,103.29,40.17,120.33,92.72,3.3,10.26-1.68,20.34-12.91,22.95Z"/>
  <path d="M245.53,281.57c-18.39,14.39-30.09,34.4-32.93,58.74-54.86-3.05-102.56-39.55-119.97-91.35-1.85-5.52-2.07-10.65.76-15.88,2.24-4.11,6.89-7.39,12.74-8.59,53.78-11.31,108.9,11.73,139.4,57.08Z"/>
  <path d="M502.52,245.11c-16.39,54.57-64.58,92.01-121.03,95.23-2.59-23.87-14.48-44.38-32.91-58.87,30.87-45.5,86.04-67.83,139.44-57.04,9.94,1.97,16.27,9.97,14.5,20.68Z"/>
  <path d="M297.07,298.01c-28.25,0-51.14,22.9-51.14,51.14s22.89,51.14,51.14,51.14,51.14-22.9,51.14-51.14-22.9-51.14-51.14-51.14ZM297.07,366.16c-9.39,0-17.01-7.61-17.01-17s7.62-17.01,17.01-17.01,17,7.62,17,17.01-7.61,17-17,17Z"/>
</svg>